<?xml version="1.0" standalone="no"?>
<!DOCTYPE svg PUBLIC "-//W3C//DTD SVG 1.1//EN" "http://www.w3.org/Graphics/SVG/1.1/DTD/svg11.dtd" >
<svg xmlns="http://www.w3.org/2000/svg">
<metadata>
Created by FontForge 20120731 at Thu Mar  2 09:15:11 2017
 By admin
</metadata>
<defs>
<font id="iconfont" horiz-adv-x="1024" >
  <font-face 
    font-family="iconfont"
    font-weight="500"
    font-stretch="normal"
    units-per-em="1024"
    panose-1="2 0 6 3 0 0 0 0 0 0"
    ascent="896"
    descent="-128"
    x-height="792"
    bbox="0 -224 1024.62 896"
    underline-thickness="0"
    underline-position="0"
    unicode-range="U+0078-E624"
  />
<missing-glyph 
 />
    <glyph glyph-name=".notdef" 
 />
    <glyph glyph-name=".notdef" 
 />
    <glyph glyph-name=".null" horiz-adv-x="0" 
 />
    <glyph glyph-name="nonmarkingreturn" horiz-adv-x="341" 
 />
    <glyph glyph-name="x" unicode="x" horiz-adv-x="1001" 
d="M281 543q-27 -1 -53 -1h-83q-18 0 -36.5 -6t-32.5 -18.5t-23 -32t-9 -45.5v-76h912v41q0 16 -0.5 30t-0.5 18q0 13 -5 29t-17 29.5t-31.5 22.5t-49.5 9h-133v-97h-438v97zM955 310v-52q0 -23 0.5 -52t0.5 -58t-10.5 -47.5t-26 -30t-33 -16t-31.5 -4.5q-14 -1 -29.5 -0.5
t-29.5 0.5h-32l-45 128h-439l-44 -128h-29h-34q-20 0 -45 1q-25 0 -41 9.5t-25.5 23t-13.5 29.5t-4 30v167h911zM163 247q-12 0 -21 -8.5t-9 -21.5t9 -21.5t21 -8.5q13 0 22 8.5t9 21.5t-9 21.5t-22 8.5zM316 123q-8 -26 -14 -48q-5 -19 -10.5 -37t-7.5 -25t-3 -15t1 -14.5
t9.5 -10.5t21.5 -4h37h67h81h80h64h36q23 0 34 12t2 38q-5 13 -9.5 30.5t-9.5 34.5q-5 19 -11 39h-368zM336 498v228q0 11 2.5 23t10 21.5t20.5 15.5t34 6h188q31 0 51.5 -14.5t20.5 -52.5v-227h-327z" />
    <glyph glyph-name="sousuo" unicode="&#xe611;" 
d="M894 -7l-239 242q73 77 73 205t-86.5 217t-212.5 89t-215 -90t-89 -216q0 -127 88 -213.5t214 -86.5q115 0 188 57l241 -244q7 -6 16 -6t20 11q7 7 8 17.5t-6 17.5zM173 443.5q0 105.5 74 180t178.5 74.5t178.5 -74.5t74 -180t-74 -180t-178.5 -74.5t-178.5 74.5t-74 180
z" />
    <glyph glyph-name="gongneng" unicode="&#xe614;" 
d="M6 806h444v-440h-444v440zM575 806h443v-440l-443 -4v444zM6 237h444v-443h-444v443zM575 237h443v-443h-443v443z" />
    <glyph glyph-name="android" unicode="&#xe612;" 
d="M770 491q-9 96 -82.5 162t-173.5 66t-173 -66t-83 -162h512zM375 599.5q0 9.5 7 16.5t16.5 7t16 -7t6.5 -16.5t-6.5 -16t-16 -6.5t-16.5 6.5t-7 16zM606 599.5q0 9.5 7 16.5t16.5 7t16 -7t6.5 -16.5t-6.5 -16t-16 -6.5t-16.5 6.5t-7 16zM405 695l-42 74q-4 8 -11.5 3.5
t-3.5 -11.5l42 -74q8 4 15 8zM623 695l42 74q4 8 11.5 3.5t2.5 -11.5l-41 -74q-9 4 -15 8zM238 185q0 -25 -17 -42.5t-40.5 -17.5t-40.5 17.5t-17 42.5v231q0 24 17 41.5t40.5 17.5t40.5 -17.5t17 -41.5v-231zM903 185q0 -25 -17 -42.5t-40.5 -17.5t-40.5 17.5t-17 42.5v231
q0 24 17 41.5t40.5 17.5t40.5 -17.5t17 -41.5v-231zM260 466v-370q0 -25 17.5 -42t42.5 -17h41v-126q0 -25 17 -42.5t40.5 -17.5t40.5 17.5t17 42.5v126h75v-126q0 -25 17 -42.5t40.5 -17.5t40.5 17.5t17 42.5v126h42q24 0 41.5 17t17.5 42v370h-507z" />
    <glyph glyph-name="android1" unicode="&#xe613;" 
d="M862.5 172q-13.5 0 -22.5 9t-9 22v194q0 13 9 22t22.5 9t23 -9t9.5 -22v-194q0 -13 -9.5 -22t-23 -9zM381 660v0l-56 71q-7 9 2.5 15t16.5 -2l58 -73q52 23 110 23t110 -23l58 73q7 8 16.5 2t2.5 -15l-56 -71q49 -27 81.5 -71t42.5 -97h-511q10 53 43 97t82 71zM622 557
v0q14 0 23 9t9 21.5t-9 21t-22.5 8.5t-23 -8.5t-9.5 -21t9.5 -21.5t22.5 -9zM401 557v0q13 0 22.5 9t9.5 21.5t-9.5 21t-22.5 8.5t-22.5 -8.5t-9.5 -21t9.5 -21.5t22.5 -9zM161 172v0q-13 0 -22.5 9t-9.5 22v194q0 13 9.5 22t23 9t22.5 -9t9 -22v-194q0 -13 -9 -22t-23 -9z
M767 93v0q0 -23 -17 -39.5t-41 -16.5h-40v-132q0 -22 -16 -37.5t-38.5 -15.5t-38.5 15.5t-16 37.5v132h-97v-132q0 -22 -16 -37.5t-38.5 -15.5t-38.5 15.5t-16 37.5v132h-40q-24 0 -40.5 16.5t-16.5 39.5v335h510v-335z" />
    <glyph glyph-name="yidongshebei" unicode="&#xe60c;" 
d="M767 685h-511q-32 0 -54.5 -22.5t-22.5 -54.5v-91v-26v-2v-441v-1v-26v-91q0 -32 22.5 -54.5t54.5 -22.5h511q32 0 54.5 22.5t22.5 54.5v91v26v1v441v2v26v91q0 32 -22.5 54.5t-54.5 22.5zM793 491v-2v-441v-1v-26v-91q0 -11 -7.5 -18.5t-18.5 -7.5h-511q-11 0 -18.5 7.5
t-7.5 18.5v91v26v1v441v2v26v91q0 11 7.5 18.5t18.5 7.5h511q11 0 18.5 -7.5t7.5 -18.5v-91v-26zM303 567v-63v-332v-63h417v63v332v63h-417zM669 172v-12h-315v12v332v12h315v-12v-332zM511 6zM471 6.5q0 16.5 12 28.5t28.5 12t28 -12t11.5 -28.5t-11.5 -28.5t-28 -12
t-28.5 12t-12 28.5z" />
    <glyph glyph-name="iconfontfuwuqi" unicode="&#xe60d;" 
d="M717 601v-608h272v608h-272zM824 512h58v-190h-58v190zM853 186q-13 0 -22.5 9.5t-9.5 23t9.5 23t22.5 9.5t22.5 -9.5t9.5 -23t-9.5 -23t-22.5 -9.5zM38 99h275v-55h-122v-51h325v51h-122v55h275v457h-631v-457zM109 485h489v-315h-489v315z" />
    <glyph glyph-name="android2" unicode="&#xe620;" 
d="M542.5 746q-112.5 0 -208 -55t-151 -150.5t-55.5 -208t55.5 -208t151 -150.5t208 -55t208 55t150.5 150.5t55 208t-55 208t-150.5 150.5t-208 55zM542 -65q-108 0 -199.5 53t-144.5 145t-53 199.5t53 199t144.5 145t199.5 53.5t199.5 -53.5t145 -145t53.5 -199
t-53.5 -199.5t-145 -145t-199.5 -53zM740 236q0 -16 12 -28t28.5 -12t28 12t11.5 28v157q0 17 -11.5 28.5t-28 11.5t-28.5 -11.5t-12 -28.5v-157v0zM599 526q0 8 5.5 13.5t13.5 5.5t14 -5.5t6 -13.5t-6 -14t-14 -6t-13.5 6t-5.5 14v0zM448 526q0 8 5.5 13.5t13.5 5.5
t14 -5.5t6 -13.5t-6 -14t-14 -6t-13.5 6t-5.5 14v0zM366 145q0 -13 9 -22t22 -9h35v-87q0 -17 11.5 -28.5t28.5 -11.5q16 0 28 12t12 28v87h61v-87q0 -17 11.5 -28.5t28 -11.5t28 11.5t11.5 28.5v87h35q13 0 22 9t9 22v287h-352v-287v0zM718 458q-4 40 -29 72.5t-64 50.5
l33 47q3 6 -1 8q-4 3 -8 -2l-34 -49q-38 14 -73 14q-37 0 -74 -14l-33 49q-5 5 -8 2q-5 -3 -1 -8l32 -47q-39 -19 -64 -51t-28 -72h352v0zM263 236q0 -16 11.5 -28t28.5 -12q16 0 28 12t12 28v157q0 17 -12 28.5t-28 11.5q-17 0 -28.5 -11.5t-11.5 -28.5v-157v0zM263 236z
" />
    <glyph glyph-name="android3" unicode="&#xe621;" 
d="M117 792v0v0zM396 518q9 0 15.5 6.5t6.5 15.5t-6.5 15.5t-15.5 6.5t-15 -6.5t-6 -15.5t6 -15.5t15 -6.5zM636 518q9 0 15 6.5t6 15.5t-6 15.5t-15 6.5t-16 -6.5t-7 -15.5t7 -15.5t16 -6.5zM175 414q24 0 41 -17t17 -41v-244q0 -24 -16.5 -41t-41 -17t-41.5 17t-17 41v244
q0 24 17 41t41 17v0zM776 403v-378q0 -26 -18 -44t-44 -18h-42v-129q0 -24 -17 -41t-41.5 -17t-41.5 17t-17 41v129h-78v-129q0 -24 -17 -41t-42 -17q-23 0 -40 17t-17 41l-1 129h-42q-26 0 -44 18t-18 44v378h520v0zM645 633q60 -31 96.5 -87t36.5 -122h-525q0 66 36.5 122
t97.5 87l-40 74q-4 7 3 11t11 -3l41 -75q54 24 114 24t114 -24l41 75q4 7 11 3t3 -11zM915 356v-244q0 -24 -17 -41t-41 -17t-41 17t-17 41v244q0 24 17 41t41 17t41 -17t17 -41z" />
    <glyph glyph-name="yonghu" unicode="&#xe60e;" 
d="M747 493.5q0 -105.5 -69.5 -180t-167 -74.5t-167 74.5t-69.5 180t69.5 180t167 74.5t167 -74.5t69.5 -180zM21 -146q1 5 3.5 13t13.5 33.5t25 50t39.5 59t55.5 64.5t75.5 62t96.5 56l368 -2q9 -4 25.5 -12t61 -37.5t82 -64.5t76.5 -95t57 -127h-979z" />
    <glyph glyph-name="anquan" unicode="&#xe615;" 
d="M816 576q-14 13 -34 13h-3h-21q-55 0 -99 10q-21 6 -46.5 22t-49 35t-26.5 20q-12 9 -27 9t-27 -9l-4 -3.5t-10.5 -9.5t-15 -13t-19.5 -15t-22 -14.5t-24 -12.5t-24 -9q-44 -10 -100 -10h-21h-3q-19 0 -34 -13q-15 -14 -15 -35v-120q0 -91 17 -168t42 -127t59.5 -90
t63.5 -61t61.5 -35.5t45.5 -18t21 -5.5q5 -1 9 -1t9 1q9 2 21.5 5.5t45 18t62 35.5t64.5 61t60 90t42.5 127t17.5 168v120q0 21 -16 35zM519 255v-1l-37 -33l-131 142l37 33l97 -104l206 190l34 -36z" />
    <glyph glyph-name="xingneng" unicode="&#xe616;" horiz-adv-x="1025" 
d="M641 880q-50 13 -102 15l-5 1h-44q-29 -3 -30 -3q-117 -11 -214 -72q-175 -108 -229 -307q-14 -49 -16 -103l-1 -6v-42q3 -29 3 -30q12 -122 76 -222q102 -158 280 -215q95 -31 194 -22q213 19 352 183q88 103 112 240q22 129 -19.5 251t-135.5 210t-221 122zM511 -71
q-92 0 -176 36t-145 97t-97 145.5t-36 176.5q0 93 36 177.5t97 145t145.5 96.5t177.5 36q92 0 176 -36t145 -97t97 -145.5t36 -176.5q0 -93 -36 -177t-97 -145t-145.5 -97t-177.5 -36zM164 459q190 -82 271 -117q5 -2 7 -6q34 -80 116 -271q0 -1 3 -6q90 321 160 563h-1
l-1 -1h-1h-1h-1l-1 -1h-1h-1l-1 -1h-1h-1h-1l-1 -1h-1h-1l-1 -1h-1h-1h-1l-1 -1h-1h-1l-1 -1h-1h-1h-1l-1 -1h-1h-1l-1 -1h-1h-1h-1l-1 -1h-1h-1l-1 -1h-1h-1h-1l-1 -1h-1h-1l-1 -1h-1h-1l-1 -1h-1h-1h-1l-1 -1h-1h-1l-1 -1h-1h-1h-1l-1 -1h-1h-1l-1 -1h-1h-1h-1l-1 -1h-1
h-1l-1 -1h-1h-1h-1l-1 -1h-1h-1l-1 -1h-1h-1h-1l-1 -1h-1h-1l-1 -1h-1h-1h-1l-1 -1h-1h-1l-1 -1h-1h-1h-1l-1 -1h-1h-1l-1 -1h-1h-1h-1l-1 -1h-1h-1l-1 -1h-1h-1h-1l-1 -1h-1h-1l-1 -1h-1h-1h-1l-1 -1h-1h-1l-1 -1h-1h-1h-1l-1 -1h-1h-1l-1 -1h-1h-1h-1l-1 -1h-1h-1l-1 -1
h-1h-1h-1l-1 -1h-1h-1l-1 -1h-1h-1h-1l-1 -1h-1h-1l-1 -1h-1h-1h-1l-1 -1h-1h-1l-1 -1h-1h-1h-1l-1 -1h-1h-1l-1 -1h-1h-1h-1l-1 -1h-1h-1l-1 -1h-1h-1h-1l-1 -1h-1h-1l-1 -1h-1h-1h-1l-1 -1h-1h-1l-1 -1h-1h-1h-1l-1 -1h-1h-1l-1 -1h-1h-1h-1l-1 -1h-1h-1l-1 -1h-1h-1h-1
l-1 -1h-1h-1l-1 -1h-1h-1h-1l-1 -1h-1h-1l-1 -1h-1h-1h-1l-1 -1h-1h-1l-1 -1h-1h-1h-1l-1 -1h-1h-1l-1 -1h-1h-1h-1l-1 -1h-1h-1l-1 -1h-1h-1h-1l-1 -1h-1h-1l-1 -1h-1h-1h-1l-1 -1h-1h-1l-1 -1h-1h-1h-1l-1 -1h-1h-1l-1 -1h-1h-1h-1l-1 -1h-1h-1l-1 -1h-1h-1h-1l-1 -1h-1
h-1l-1 -1h-1h-1h-1l-1 -1h-1h-1l-1 -1h-1h-1h-1l-1 -1h-1h-1l-1 -1h-1h-1h-1l-1 -1h-1h-1l-1 -1h-1h-1h-1l-1 -1h-1h-1l-1 -1h-1h-1h-1l-1 -1h-1h-1l-1 -1h-1h-1h-1l-1 -1h-1h-1l-1 -1h-1h-1h-1l-1 -1h-1h-1l-1 -1h-1h-1h-1l-1 -1h-1h-1l-1 -1h-1h-1h-1l-1 -1h-1h-1l-1 -1
h-1h-1h-1l-1 -1h-1h-1l-1 -1h-1h-1h-1l-1 -1h-1h-1l-1 -1h-1h-1h-1l-1 -1h-1h-1l-1 -1h-1h-1h-1l-1 -1h-1h-1l-1 -1h-1h-1h-1l-1 -1h-1h-1l-1 -1h-1h-1h-1l-1 -1h-1h-1l-1 -1h-1h-1h-1l-1 -1h-1h-1l-1 -1h-1h-1h-1l-1 -1h-1h-1l-1 -1h-1h-1h-1l-1 -1h-1h-1l-1 -1h-1h-1h-1
l-1 -1h-1h-1l-1 -1h-1h-1h-1l-1 -1h-1h-1l-1 -1h-1h-1h-1l-1 -1h-1h-1l-1 -1h-1h-1h-1l-1 -1h-1h-1l-1 -1h-1h-1h-1l-1 -1h-1h-1l-1 -1h-1h-1h-1l-1 -1h-1h-1l-1 -1h-1h-1h-1l-1 -1h-1h-1l-1 -1h-1h-1h-1l-1 -1h-1h-1l-1 -1h-1h-1h-1l-1 -1h-1h-1l-1 -1h-1h-1h-1l-1 -1h-1
h-1l-1 -1h-1h-1h-1l-1 -1h-1h-1l-1 -1h-1h-1h-1l-1 -1h-1h-1l-1 -1h-1h-1h-1l-1 -1h-1h-1l-1 -1h-1h-1h-1l-1 -1h-1h-1l-1 -1h-1h-1h-1l-1 -1h-1h-1l-1 -1h-1h-1h-1l-1 -1h-1h-1l-1 -1h-1h-1h-1l-1 -1h-1h-1l-1 -1h-1h-1h-1l-1 -1h-1h-1l-1 -1h-1h-1h-1l-1 -1h-1h-1l-1 -1
h-1h-1h-1l-1 -1h-1h-1l-1 -1h-1h-1h-1l-1 -1h-1h-1l-1 -1h-1h-1h-1l-1 -1h-1h-1l-1 -1h-1h-1h-1l-1 -1h-1h-1l-1 -1h-1h-1h-1l-1 -1h-1h-1l-1 -1h-1h-1h-1l-1 -1zM681 582v-1v-1l-1 -1v-1v-1l-1 -1v-1v-1l-1 -1v-1v-1l-1 -1v-1v-1l-1 -1v-1v-1l-1 -1v-1v-1l-1 -1v-1v-1
l-1 -1v-1v-1l-1 -1v-1v-1l-1 -1v-1v-1l-1 -1v-1v-1l-1 -1v-1l-1 -1v-1v-1l-1 -1v-1v-1l-1 -1v-1v-1l-1 -1v-1v-1l-1 -1v-1v-1l-1 -1v-1v-1l-1 -1v-1v-1l-1 -1v-1v-1l-1 -1v-1v-1l-1 -1v-1v-1l-1 -1v-1v-1l-1 -1v-1v-1l-1 -1v-1v-1l-1 -1v-1v-1l-1 -1v-1v-1l-1 -1v-1v-1
l-1 -1v-1v-1l-1 -1v-1v-1l-1 -1v-1v-1l-1 -1v-1v-1l-1 -1v-1v-1l-1 -1v-1v-1l-1 -1v-1v-1l-1 -1v-1v-1l-1 -1v-1v-1l-1 -1v-1v-1l-1 -1v-1v-1l-1 -1v-1v-1l-1 -1v-1v-1l-1 -1v-1v-1l-1 -1v-1v-1l-1 -1v-1v-1l-1 -1v-1v-1l-1 -1v-1v-1l-1 -1v-1v-1l-1 -1v-1v-1l-1 -1v-1v-1
l-1 -1v-1v-1l-1 -1v-1v-1l-1 -1v-1v-1l-1 -1v-1v-1l-1 -1v-1v-1l-1 -1v-1v-1l-1 -1v-1v-1l-1 -1v-1v-1l-1 -1v-1v-1l-1 -1v-1v-1l-1 -1v-1v-1l-1 -1v-1v-1l-1 -1v-1v-1l-1 -1v-1v-1l-1 -1v-1v-1l-1 -1v-1v-1l-1 -1v-1v-1l-1 -1v-1v-1l-1 -1v-1v-1l-1 -1v-1v-1l-1 -1v-1v-1
l-1 -1v-1v-1l-1 -1v-1v-1l-1 -1v-1v-1l-1 -1v-1v-1l-1 -1v-1v-1l-1 -1v-1v-1l-1 -1v-1v-1l-1 -1v-1v-1l-1 -1v-1v-1l-1 -1v-1v-1l-1 -1v-1v-1l-1 -1v-1v-1l-1 -1v-1v-1l-1 -1v-1v-1l-1 -1v-1v-1l-1 -1v-1v-1l-1 -1v-1v-1l-1 -1v-1v-1l-1 -1v-1v-1l-1 -1v-1v-1l-1 -1v-1v-1
l-1 -1v-1v-1l-1 -1v-1v-2l-1 -1v-1v-1l-1 -1v-1v-1l-1 -1v-1v-1l-1 -1v-1v-1l-1 -1v-1v-1l-1 -1v-1v-1l-1 -1v-1v-1l-1 -1v-1v-1l-1 -1v-1v-1l-1 -1v-1v-1l-1 -1v-1v-1l-1 -1v-1v-1l-1 -1v-1v-1l-1 -1v-1v-1l-1 -1v-1v-1l-1 -1v-1v-1l-1 -1v-1v-1l-1 -1v-1v-1l-1 -1v-1v-1
l-1 -1v-1v-1l-1 -1v-1v-1l-1 -1v-1v-1l-1 -1v-1v-1l-1 -1v-1v-1l-1 -1v-1v-1l-1 -1v-1v-1l-1 -1v-1v-1l-1 -1v-1v-1l-1 -1v-1v-1l-1 -1v-1v-1l-1 -1v-1v-1l-1 -1v-1v-1l-1 -1v-1v-1l-1 -1v-1v-1l-1 -1v-1v-1l-1 -1v-1v-1l-1 -1v-1v-1l-1 -1v-1v-1l-1 -1v-1v-1l-1 -1v-1v-1
l-1 -1v-1v-1l-1 -1v-1v-1l-1 -1v-1v-1l-1 -1v-1v-1l-1 -1v-1v-1l-1 -1v-1v-1l-1 -1v-2l-2 5q-48 146 -66 201q-2 6 -7 8q-51 16 -201 65q-3 1 -4 3q92 30 420 140z" />
    <glyph glyph-name="jianrongceshi" unicode="&#xe617;" 
d="M293 368l62 102l56 -112l60 122l60 -140q5 -13 18 -13q5 0 8 2q8 3 11.5 11t-0.5 16l-95 223l-63 -129l-52 104l-71 -116l-21 26q-6 6 -14 7t-14.5 -4.5t-7.5 -14t5 -15.5zM803 561h-148v146v3q0 44 -30 75.5t-72 31.5h-306q-42 0 -72 -31.5t-30 -75.5v-3v-538v-74
q0 -45 30 -76.5t72 -31.5h306q30 0 55 17t38 45h157q44 0 75.5 31.5t31.5 75.5v299q0 44 -31.5 75t-75.5 31zM614 95q0 -28 -18 -47.5t-43 -19.5h-306q-25 0 -43 19.5t-18 47.5v74h428v-74zM614 210h-428v456h428v-456zM614 707h-428v3q0 27 18 46.5t43 19.5h306
q25 0 43 -19.5t18 -46.5v-3v0zM869 155q0 -27 -19.5 -46t-46.5 -19h-148v5v74v351h148q27 0 46.5 -19t19.5 -46v-300zM432 101q0 13 -8.5 21.5t-20.5 8.5t-20.5 -9t-8.5 -21.5t8.5 -21.5t20.5 -9t20.5 9t8.5 21v1z" />
    <glyph glyph-name="bianliceshi" unicode="&#xe618;" 
d="M791 417q9 7 10 17.5t-5 19t-17 10t-19 -5.5l-60 -46l-16 20q-7 8 -17.5 9t-19 -6t-9.5 -17.5t6 -18.5l48 -57zM784 605h-282q-3 60 -47 102t-105 42q-63 0 -107.5 -44.5t-44.5 -107.5t44.5 -108t107.5 -45q51 0 91.5 30.5t54.5 78.5h288q35 0 59.5 -24.5t24.5 -59.5
v-306q0 -34 -24.5 -58.5t-59.5 -24.5h-191v193q0 48 -34 82.5t-82 34.5h-254q-48 0 -82 -34.5t-34 -82.5v-245h485h1h191q56 0 95.5 39.5t39.5 95.5v306q0 56 -39.5 96t-95.5 40zM350 496q-42 0 -71.5 29.5t-29.5 71t29.5 71.5t71.5 30t71.5 -30t29.5 -71.5t-29.5 -71
t-71.5 -29.5zM541 80h-382v193q0 27 19 46t45 19h254q26 0 45 -19t19 -46v-193zM644 220l48 -57l99 76q9 6 10 17t-5 19.5t-17 9.5t-19 -5l-60 -46l-16 19q-7 9 -17.5 10t-19 -6t-9.5 -17.5t6 -19.5z" />
    <glyph glyph-name="renwu" unicode="&#xe619;" 
d="M806 -41h-588q-41 0 -70 28.5t-29 69.5v654q0 41 29 69.5t70 28.5h588q41 0 70 -28.5t29 -69.5v-654q0 -41 -29 -69.5t-70 -28.5zM218 744q-14 0 -23.5 -9.5t-9.5 -23.5v-654q0 -14 9.5 -23.5t23.5 -9.5h588q14 0 23.5 9.5t9.5 23.5v654q0 14 -9.5 23.5t-23.5 9.5h-588z
M644 350h-361q-14 0 -23.5 10t-9.5 23.5t9.5 23t23.5 9.5h361q13 0 23 -9.5t10 -23t-10 -23.5t-23 -10zM740 155h-457q-14 0 -23.5 10t-9.5 23.5t9.5 23t23.5 9.5h457q13 0 23 -9.5t10 -23t-10 -23.5t-23 -10zM250 595.5q0 20.5 14.5 34.5t34.5 14t34.5 -14t14.5 -35v0
q0 -20 -14.5 -34.5t-34.5 -14.5t-34.5 14.5t-14.5 35zM462 595.5q0 20.5 14.5 34.5t34.5 14t34.5 -14t14.5 -35v0q0 -20 -14.5 -34.5t-34.5 -14.5t-34.5 14.5t-14.5 35zM675 595.5q0 20.5 14.5 34.5t34.5 14t34.5 -14t14.5 -35v0q0 -20 -14.5 -34.5t-34.5 -14.5t-34.5 14.5
t-14.5 35z" />
    <glyph glyph-name="rengongjiance" unicode="&#xe61a;" 
d="M924 18l-13 -39l-105 105q-40 -28 -88 -28q-64 0 -109.5 45.5t-45.5 109t45.5 109t109.5 45.5t109 -45.5t45 -109.5q0 -58 -39 -102zM833 210.5q0 47.5 -33.5 81.5t-81.5 34t-82 -34t-34 -81.5t34 -81.5t82 -34t81.5 34t33.5 81.5zM512 352h-45l45 -39l-51 -38l51 -180
l-90 -52l-90 52l51 180l-51 38l45 39h-45q-82 0 -137.5 -42.5t-55.5 -111.5v-168h90v193h39v-193h437v1q10 -1 19 -1t20 1v-39h-644l1 218q0 80 66.5 130t164.5 50h180q66 0 118 -21q-21 -10 -41 -26q-18 5 -37 7t-30 2h-10zM371 313l38 -25l-38 -180l51 -26l51 26l-38 180
l38 25l-51 39zM422 403q-80 0 -136.5 56.5t-56.5 136.5t56.5 136.5t136.5 56.5t136.5 -56.5t56.5 -136.5t-56.5 -136.5t-136.5 -56.5zM422 750q-64 0 -109 -45t-45 -109t45 -109t109 -45t109 45t45 109t-45 109t-109 45z" />
    <glyph glyph-name="jiantou-copy-copy-copy-copy" unicode="&#xe609;" 
d="M843 442q29 -16 29 -39.5t-29 -40.5l-548 -316q-29 -17 -49 -5t-20 45v633q0 33 20 44.5t49 -4.5z" />
    <glyph glyph-name="yingyong" unicode="&#xe60b;" 
d="M513 865q-99 0 -189.5 -39t-155.5 -104t-103.5 -155.5t-38.5 -189.5t38.5 -189.5t103.5 -156t155.5 -104t189.5 -38.5q153 0 278 87h-1q13 10 13 27q0 15 -10 25t-25 10q-16 0 -26 -12v0q-104 -67 -228 -67q-114 0 -210.5 56t-152.5 152.5t-56 210t56 210t152.5 152.5
t210.5 56t210.5 -56t152.5 -152.5t56 -210.5q0 -140 -85 -252q-12 -11 -12 -26t10.5 -25.5t24.5 -10.5t24 9v0v1q4 4 7 9q99 131 99 295q0 99 -38.5 189.5t-104 155.5t-155.5 104t-190 39v0zM513 865zM267 239l225 -135v265l-225 135v-265zM267 239zM507 651l-212 -109
l219 -138l219 112zM507 651zM539 370v-265l219 113v0v265zM539 370z" />
    <glyph glyph-name="jiantou" unicode="&#xe60a;" 
d="M151 696h719q30 0 51 -20.5t21 -50.5q0 -28 -19 -48l-355 -474q-18 -24 -47 -28t-53 14q-9 6 -14 14l-360 479q-17 23 -13 52.5t28 47.5q19 14 42 14v0v0zM151 696z" />
    <glyph glyph-name="yonglimiaoshu" unicode="&#xe61b;" 
d="M806 707h-588q-12 0 -20.5 -8.5t-8.5 -20.5v-118q0 -12 8.5 -20.5t20.5 -8.5h588q12 0 20.5 8.5t8.5 20.5v118q0 12 -8.5 20.5t-20.5 8.5zM806 560h-588v118h588v-118zM806 472h-353q-12 0 -20.5 -8.5t-8.5 -20.5v-353q0 -12 8.5 -20.5t20.5 -8.5h353q12 0 20.5 8.5
t8.5 20.5v353q0 12 -8.5 20.5t-20.5 8.5zM806 90h-353v353h353v-353zM336 472h-118q-12 0 -20.5 -8.5t-8.5 -20.5v-353q0 -12 8.5 -20.5t20.5 -8.5h118q12 0 20.5 8.5t8.5 20.5v353q0 12 -8.5 20.5t-20.5 8.5zM336 90h-118v353h118v-353z" />
    <glyph glyph-name="canshuguanli" unicode="&#xe610;" 
d="M639 540q0 7 -5 12t-12 5h-312q-7 0 -12 -5t-5 -12t5 -12t12 -5h312q7 0 12 5t5 12zM310 453q-7 0 -12 -5t-5 -12t5 -12t12 -5h173q8 0 13 5t5 12t-5 12t-13 5h-173zM704 157h-99q-6 0 -10 -4t-4 -10v-99q0 -6 4 -10t10 -4h99q6 0 10 4t4 10v99q0 6 -4 10t-10 4zM690 58
h-71v71h71v-71zM859 157h-99q-5 0 -9.5 -4t-4.5 -10v-99q0 -6 4.5 -10t9.5 -4h99q6 0 10 4t4 10v99q0 6 -4 10t-10 4zM845 58h-70v71h70v-71zM859 312h-99q-5 0 -9.5 -4t-4.5 -10v-99q0 -5 4.5 -9.5t9.5 -4.5h99q6 0 10 4.5t4 9.5v99q0 6 -4 10t-10 4zM845 214h-70v70h70
v-70zM704 312h-99q-6 0 -10 -4t-4 -10v-99q0 -5 4 -9.5t10 -4.5h99q6 0 10 4.5t4 9.5v99q0 6 -4 10t-10 4zM690 214h-71v70h71v-70zM813 661v-294h34v294q0 43 -30.5 73.5t-73.5 30.5h-485q-43 0 -73.5 -30.5t-30.5 -73.5v-554q0 -43 30.5 -73t73.5 -30h312v34h-312
q-28 0 -48.5 20.5t-20.5 48.5v554q0 29 20.5 49t48.5 20h485q29 0 49.5 -20t20.5 -49z" />
    <glyph glyph-name="icon_arrow_bottom" unicode="&#xe600;" 
d="M472 144l-399 400q-17 16 -17 39.5t16.5 40t40 16.5t40.5 -16l359 -360l359 360q17 16 40.5 16t40 -16.5t16.5 -40t-17 -39.5l-399 -400q-17 -16 -40 -16t-40 16z" />
    <glyph glyph-name="icon_arrow_left" unicode="&#xe601;" 
d="M272 424l400 399q16 17 39.5 17t40 -16.5t16.5 -40t-16 -40.5l-360 -359l360 -359q16 -17 16 -40.5t-16.5 -40t-40 -16.5t-39.5 17l-400 399q-16 17 -16 40t16 40z" />
    <glyph glyph-name="icon_arrow_right" unicode="&#xe602;" 
d="M752 344l-400 -399q-16 -17 -39.5 -17t-40 16.5t-16.5 40t16 40.5l360 359l-360 359q-16 17 -16 40.5t16.5 40t40 16.5t39.5 -17l400 -399q16 -17 16 -40t-16 -40z" />
    <glyph glyph-name="icon_arrow_top" unicode="&#xe603;" 
d="M472 624l-399 -400q-17 -16 -17 -39.5t16.5 -40t40 -16.5t40.5 16l359 360l359 -360q17 -16 40.5 -16t40 16.5t16.5 40t-17 39.5l-399 400q-17 16 -40 16t-40 -16z" />
    <glyph glyph-name="gengduocaidan" unicode="&#xe604;" horiz-adv-x="1037" 
d="M1021 60q0 -11 -8 -19t-20 -8h-966q-11 0 -19 8t-8 19v0q0 12 8 20t19 8h966q12 0 20 -8t8 -20v0zM1021 629q0 11 -8 19t-20 8h-966q-11 0 -19 -8t-8 -19v0q0 -11 8 -19t19 -8h966q12 0 20 8t8 19v0zM1021 345q0 -12 -8 -20t-20 -8h-966q-11 0 -19 8t-8 20v0q0 11 8 19
t19 8h966q12 0 20 -8t8 -19v0z" />
    <glyph glyph-name="shangzhankai" unicode="&#xe605;" 
d="M267 223q7 -5 15 -5t15 5l163 163q8 7 19 7t19 -7l159 -159q8 -9 19 -9t19 8t8 19q0 9 -5 16l-6 5l-176 176q-15 15 -37 15t-37 -15l-178 -178l-2 -2q-7 -7 -7 -17q0 -14 12 -22z" />
    <glyph glyph-name="xiazhankai" unicode="&#xe606;" 
d="M691 453q-6 4 -14.5 4t-15.5 -4l-163 -163q-8 -8 -19 -8t-19 8l-159 158q-8 9 -19 9t-19 -7.5t-8 -18.5q0 -9 6 -16l5 -5l176 -176q15 -16 37 -16t38 16l177 177l2 2q7 8 7 18q0 14 -12 22z" />
    <glyph glyph-name="zuozhankai" unicode="&#xe607;" 
d="M594 126q5 6 5 14.5t-5 14.5l-163 164q-8 8 -8 19t8 18l159 159q8 8 8 20q0 11 -7.5 19t-18.5 8q-9 0 -16 -6l-5 -5l-176 -176q-15 -15 -15 -37t15 -38l178 -177l1 -2q8 -7 18 -7q14 0 22 12z" />
    <glyph glyph-name="youzhankai" unicode="&#xe608;" 
d="M382 550q-5 -7 -5 -15t5 -15l162 -163q8 -8 8 -19t-8 -19l-158 -159q-9 -8 -9 -20q0 -10 8 -18t19 -8q8 0 15 5l6 6l176 176q15 15 15 37t-15 37l-178 178l-2 2q-7 7 -18 7q-14 0 -21 -12z" />
    <glyph glyph-name="wendingxing" unicode="&#xe61c;" 
d="M895 -53q-15 0 -25.5 10.5t-10.5 25.5v558q0 15 10.5 25.5t25.5 10.5t25.5 -10.5t10.5 -25.5v-558q0 -15 -10.5 -25.5t-25.5 -10.5zM702 -53q-15 0 -25.5 10.5t-10.5 25.5v368q0 15 10.5 25.5t25.5 10.5t25.5 -10.5t10.5 -25.5v-368q0 -15 -10.5 -25.5t-25.5 -10.5z
M513 -53q-15 0 -25.5 10.5t-10.5 25.5v238q0 15 10.5 25.5t25.5 10.5t25.5 -10.5t10.5 -25.5v-238q0 -15 -10.5 -25.5t-25.5 -10.5zM319 -53q-15 0 -25.5 10.5t-10.5 25.5v148q0 15 10.5 25.5t25.5 10.5t25.5 -10.5t10.5 -25.5v-148q0 -15 -10.5 -25.5t-25.5 -10.5zM128 -53
q-15 0 -25.5 10.5t-10.5 25.5v63q0 15 10.5 25.5t25.5 10.5t25.5 -10.5t10.5 -25.5v-63q0 -15 -10.5 -25.5t-25.5 -10.5zM138 242q-12 0 -20 8.5t-8 19.5q0 21 20 27v0q2 1 5 1v0q115 22 215 62.5t164.5 82t118 92.5t80 85.5t45.5 68.5q3 4 1.5 8.5t-5.5 6.5l-49 22h-1
q-2 1 -3 1q-7 4 -10 11.5t0 15.5q3 6 10 9q0 1 1 1q1 1 3 2l132 54q3 2 7 2q13 0 17 -13l48 -135v-2q4 -8 1 -17q-6 -11 -19 -11q-4 0 -8 1l-2 2h-1l-51 23q-2 1 -5 1q-6 0 -9 -6q-25 -55 -75.5 -110t-141.5 -128q-49 -39 -122 -73.5t-146.5 -58t-112 -34t-64.5 -16.5h-1
q-2 0 -4 -1q-5 -2 -10 -2z" />
    <glyph glyph-name="jindujihua" unicode="&#xe60f;" 
d="M0 374l275 227l268 -51l183 223l-88 26l386 52l-387 -529l-302 72l-335 -281v261zM336 289l-336 -289v-26q0 -42 30 -72t72 -30h820q42 0 72 30t30 72v759l-369 -516z" />
    <glyph glyph-name="fenxiang" unicode="&#xe61d;" 
d="M614 884q53 -3 88 -42.5t32 -92t-42 -87.5t-91.5 -32.5t-88 42t-32.5 92t42 88t92 32.5v0zM298 374q10 8 27 20t64 41t87 49.5t83.5 33t65.5 2.5q28 -12 29 -57t-13 -88.5t-32.5 -92.5t-19.5 -53q-3 -14 -6 -33t-6.5 -51t1 -54.5t15.5 -39t38 -9t67 40.5l22 11
q27 7 -58 -84q-59 -63 -124 -97.5t-111.5 -28.5t-55.5 53q-6 32 8.5 116.5t37 186t27.5 134.5q2 18 -12 14q-11 -3 -25 -14q-5 -3 -13 -8.5t-29.5 -17t-40 -18.5t-36.5 -6t-26 14q-3 5 11 17.5t25 18.5v0z" />
    <glyph glyph-name="icon" unicode="&#xe61e;" 
d="M283 42l-161 278l161 278h321l160 -278l-160 -278h-321zM690 482l-70 122l70 122h141l71 -122l-71 -122h-141z" />
    <glyph glyph-name="gengduocaidan-copy" unicode="&#xe61f;" horiz-adv-x="1037" 
d="M188 -125q-11 0 -19 8t-8 20v966q0 11 8 19t19 8v0q12 0 20 -8t8 -19v-966q0 -12 -8 -20t-20 -8v0zM757 -125q11 0 19 8t8 20v966q0 11 -8 19t-19 8v0q-11 0 -19 -8t-8 -19v-966q0 -12 8 -20t19 -8v0zM473 -125q-12 0 -20 8t-8 20v966q0 11 8 19t20 8v0q11 0 19 -8t8 -19
v-966q0 -12 -8 -20t-19 -8v0z" />
    <glyph glyph-name="jiantou-copy" unicode="&#xe622;" 
d="M873 72h-719q-30 0 -51 20.5t-21 50.5q0 28 19 48l355 474q18 24 47 28t53 -14q9 -6 14 -14l360 -479q17 -23 13 -52.5t-28 -47.5q-19 -14 -42 -14v0v0zM873 72z" />
    <glyph glyph-name="jiantou-right" unicode="&#xe623;" 
d="M200 23v719q0 30 20.5 51t50.5 21q28 0 48 -19l474 -355q24 -18 28 -47t-14 -53q-6 -9 -14 -14l-479 -360q-23 -17 -52.5 -13t-47.5 28q-14 19 -14 42v0v0v0zM200 23z" />
    <glyph glyph-name="script" unicode="&#xe624;" 
d="M909 780h-794q-28 0 -47 -19.5t-19 -47.5v-662q0 -27 19 -46.5t47 -19.5h794q28 0 47 19.5t19 46.5v662q0 28 -19 47.5t-47 19.5v0zM810 713q14 0 23.5 -9.5t9.5 -23t-9.5 -23.5t-23.5 -10t-23.5 10t-9.5 23.5t9.5 23t23.5 9.5v0zM677 713q14 0 24 -9.5t10 -23t-10 -23.5
t-23.5 -10t-23.5 10t-10 23.5t10 23t23 9.5v0zM545 713q14 0 23.5 -9.5t9.5 -23t-9.5 -23.5t-23.5 -10t-23.5 10t-9.5 23.5t9.5 23t23.5 9.5v0zM909 85q0 -14 -9.5 -24t-23.5 -10h-728q-14 0 -23.5 10t-9.5 24v495h794v-495zM257 127q10 -9 23.5 -9t23.5 9l165 166
q10 9 10 23t-10 24l-165 165q-10 10 -23.5 10t-23.5 -10t-10 -23.5t10 -23.5l142 -142l-142 -142q-10 -10 -10 -23.5t10 -23.5v0zM446 151q0 -14 9.5 -23.5t23.5 -9.5h265q13 0 23 9.5t10 23t-10 23.5t-23 10h-265q-14 0 -23.5 -10t-9.5 -23v0zM446 151z" />
  </font>
</defs>
</svg>
